<svg width="34" height="34" viewBox="0 0 34 34" fill="none" xmlns="http://www.w3.org/2000/svg">
<path fill-rule="evenodd" clip-rule="evenodd" d="M15.997 0C17.34 0.118996 18.1271 0.577981 18.6048 1.10836C19.1879 1.75604 19.55 2.77941 19.55 4.22096C19.5502 4.67201 19.4308 5.11505 19.2039 5.50488C18.977 5.89471 18.6507 6.21738 18.2584 6.43997C17.8661 6.66256 17.4218 6.77711 16.9707 6.77193C16.5197 6.76675 16.0781 6.64203 15.691 6.41049L15.47 6.2609C15.2914 6.12695 15.0882 6.0295 14.8719 5.97409C14.6556 5.91869 14.4306 5.90642 14.2096 5.93799C13.9886 5.96956 13.776 6.04435 13.5839 6.15809C13.3918 6.27183 13.2239 6.42229 13.09 6.60089C12.9561 6.77948 12.8586 6.9827 12.8032 7.19896C12.7478 7.41522 12.7355 7.64026 12.7671 7.86126C12.8308 8.30758 13.0693 8.7103 13.43 8.98081C14.314 9.64378 15.3651 10.0475 16.4657 10.1467C17.5662 10.246 18.6726 10.0368 19.6609 9.54263C20.6493 9.04848 21.4804 8.28889 22.0614 7.34896C22.6423 6.40904 22.95 5.32591 22.95 4.22096C22.95 3.0565 22.7766 1.89374 22.3584 0.832973C29.121 3.0769 34 9.45339 34 16.9706C34 26.3593 26.3891 33.97 17 33.97C7.6109 33.97 0 26.3593 0 16.9706C0 7.91834 7.0754 0.520183 15.997 0ZM21.488 22.4648C21.1417 22.1764 20.695 22.0373 20.2462 22.0781C19.7973 22.1189 19.383 22.3362 19.0944 22.6824C18.4841 23.4133 17.7378 23.7703 17 23.7703C16.2622 23.7703 15.5159 23.4133 14.9056 22.6824C14.6134 22.3484 14.2021 22.1419 13.7597 22.107C13.3173 22.0721 12.8787 22.2116 12.5378 22.4957C12.1969 22.7798 11.9806 23.186 11.9351 23.6275C11.8896 24.0689 12.0185 24.5106 12.2944 24.8583C13.4368 26.2302 15.0892 27.1702 17 27.1702C18.9108 27.1702 20.5632 26.2302 21.7056 24.8583C21.994 24.512 22.1331 24.0653 22.0923 23.6165C22.0515 23.1677 21.8342 22.7534 21.488 22.4648ZM11.05 13.5707C10.3737 13.5707 9.7251 13.8393 9.24688 14.3175C8.76866 14.7957 8.5 15.4443 8.5 16.1206C8.5 16.7969 8.76866 17.4454 9.24688 17.9236C9.7251 18.4018 10.3737 18.6705 11.05 18.6705C11.7263 18.6705 12.3749 18.4018 12.8531 17.9236C13.3313 17.4454 13.6 16.7969 13.6 16.1206C13.6 15.4443 13.3313 14.7957 12.8531 14.3175C12.3749 13.8393 11.7263 13.5707 11.05 13.5707ZM22.95 13.5707C22.2737 13.5707 21.6251 13.8393 21.1469 14.3175C20.6687 14.7957 20.4 15.4443 20.4 16.1206C20.4 16.7969 20.6687 17.4454 21.1469 17.9236C21.6251 18.4018 22.2737 18.6705 22.95 18.6705C23.6263 18.6705 24.2749 18.4018 24.7531 17.9236C25.2313 17.4454 25.5 16.7969 25.5 16.1206C25.5 15.4443 25.2313 14.7957 24.7531 14.3175C24.2749 13.8393 23.6263 13.5707 22.95 13.5707Z" fill="#7F57CA"/>
</svg>
