<svg width="23" height="25" viewBox="0 0 23 25" fill="none" xmlns="http://www.w3.org/2000/svg">
<path d="M0 21.2935V8.92955C0 8.49452 0.0995699 8.08238 0.29871 7.69315C0.49785 7.30391 0.772253 6.98336 1.12192 6.7315L9.5363 0.549511C10.0271 0.18317 10.5881 0 11.2192 0C11.8502 0 12.4112 0.18317 12.902 0.549511L21.3164 6.7315C21.667 6.98336 21.9419 7.30391 22.141 7.69315C22.3402 8.08238 22.4393 8.49452 22.4383 8.92955V21.2935C22.4383 22.0491 22.1635 22.6962 21.6137 23.2347C21.064 23.7732 20.4039 24.042 19.6336 24.0411H15.4264C15.029 24.0411 14.6962 23.9092 14.4279 23.6454C14.1595 23.3817 14.0249 23.0556 14.024 22.6673V15.7984C14.024 15.4092 13.8893 15.0831 13.6201 14.8203C13.3508 14.5574 13.018 14.4256 12.6216 14.4247H9.81678C9.41943 14.4247 9.08659 14.5565 8.81827 14.8203C8.54994 15.0841 8.41531 15.4101 8.41438 15.7984V22.6673C8.41438 23.0565 8.27975 23.383 8.01049 23.6468C7.74123 23.9106 7.40839 24.042 7.01198 24.0411H2.80479C2.03347 24.0411 1.37341 23.7723 0.824609 23.2347C0.275804 22.6971 0.000934931 22.05 0 21.2935Z" fill="white"/>
</svg>
