<svg width="38" height="35" viewBox="0 0 38 35" fill="none" xmlns="http://www.w3.org/2000/svg">
<path d="M13.5111 0C14.668 0 15.7295 0.432328 16.5021 1.23112C17.2748 2.03076 17.7333 3.17237 17.7333 4.54957C17.7333 5.92002 17.2807 7.29553 16.5427 8.33667C15.808 9.37273 14.744 10.1327 13.5111 10.1327C12.2782 10.1327 11.2142 9.37273 10.4796 8.33667C9.74151 7.29553 9.28889 5.92002 9.28889 4.55042C9.28889 3.17237 9.74742 2.03076 10.5209 1.23112C11.2928 0.432328 12.3542 0 13.5111 0ZM4.22222 7.59951C5.37911 7.59951 6.44058 8.03184 7.21324 8.83063C7.98591 9.63027 8.44444 10.7719 8.44444 12.1491C8.44444 13.5195 7.99182 14.895 7.25378 15.9362C6.51911 16.9722 5.45511 17.7322 4.22222 17.7322C2.98933 17.7322 1.92533 16.9722 1.19067 15.9362C0.452622 14.895 0 13.5187 0 12.1499C0 10.7719 0.458533 9.63027 1.23204 8.83063C2.00387 8.03184 3.06533 7.59951 4.22222 7.59951ZM19 13.5102C12.9842 13.5102 8.00027 18.6315 6.43129 25.0531C5.73547 27.902 6.79693 30.9579 9.41471 32.406C11.4946 33.5578 14.6072 34.62 18.9992 34.62C23.392 34.62 26.5046 33.5578 28.5853 32.406C31.2022 30.9579 32.2637 27.902 31.5679 25.0539C29.9997 18.6315 25.015 13.5102 19 13.5102ZM33.7778 7.59951C32.6209 7.59951 31.5594 8.03184 30.7876 8.83063C30.0141 9.63027 29.5556 10.7719 29.5556 12.1491C29.5556 13.5195 30.0082 14.895 30.7462 15.9362C31.4809 16.9722 32.5449 17.7322 33.7778 17.7322C35.0107 17.7322 36.0747 16.9722 36.8093 15.9362C37.5474 14.895 38 13.5195 38 12.1499C38 10.7719 37.5415 9.63027 36.7688 8.83063C35.9961 8.03184 34.9347 7.59951 33.7778 7.59951ZM24.4889 0C23.332 0 22.2705 0.432328 21.4987 1.23112C20.7252 2.03076 20.2667 3.17237 20.2667 4.54957C20.2667 5.92002 20.7193 7.29553 21.4573 8.33667C22.192 9.37273 23.256 10.1327 24.4889 10.1327C25.7218 10.1327 26.7858 9.37273 27.5204 8.33667C28.2585 7.29553 28.7111 5.92002 28.7111 4.55042C28.7111 3.17237 28.2526 2.03076 27.4799 1.23112C26.7072 0.432328 25.6458 0 24.4889 0Z" fill="#7F57CA"/>
</svg>
