<svg width="25" height="25" viewBox="0 0 25 25" fill="none" xmlns="http://www.w3.org/2000/svg">
<path d="M2.3081 0C1.69596 0 1.10888 0.243174 0.676028 0.676028C0.243174 1.10888 0 1.69596 0 2.3081L0 8.46304C0 9.07519 0.243174 9.66226 0.676028 10.0951C1.10888 10.528 1.69596 10.7711 2.3081 10.7711H8.46304C9.07519 10.7711 9.66226 10.528 10.0951 10.0951C10.528 9.66226 10.7711 9.07519 10.7711 8.46304V2.3081C10.7711 1.69596 10.528 1.10888 10.0951 0.676028C9.66226 0.243174 9.07519 0 8.46304 0H2.3081ZM15.578 0C14.9659 0 14.3788 0.243174 13.946 0.676028C13.5131 1.10888 13.2699 1.69596 13.2699 2.3081V8.46304C13.2699 9.07519 13.5131 9.66226 13.946 10.0951C14.3788 10.528 14.9659 10.7711 15.578 10.7711H21.733C22.3451 10.7711 22.9322 10.528 23.3651 10.0951C23.7979 9.66226 24.0411 9.07519 24.0411 8.46304V2.3081C24.0411 1.69596 23.7979 1.10888 23.3651 0.676028C22.9322 0.243174 22.3451 0 21.733 0H15.578ZM2.3081 13.2699C1.69596 13.2699 1.10888 13.5131 0.676028 13.946C0.243174 14.3788 0 14.9659 0 15.578L0 21.733C0 22.3451 0.243174 22.9322 0.676028 23.3651C1.10888 23.7979 1.69596 24.0411 2.3081 24.0411H8.46304C9.07519 24.0411 9.66226 23.7979 10.0951 23.3651C10.528 22.9322 10.7711 22.3451 10.7711 21.733V15.578C10.7711 14.9659 10.528 14.3788 10.0951 13.946C9.66226 13.5131 9.07519 13.2699 8.46304 13.2699H2.3081ZM15.578 13.2699C14.9659 13.2699 14.3788 13.5131 13.946 13.946C13.5131 14.3788 13.2699 14.9659 13.2699 15.578V21.733C13.2699 22.3451 13.5131 22.9322 13.946 23.3651C14.3788 23.7979 14.9659 24.0411 15.578 24.0411H21.733C22.3451 24.0411 22.9322 23.7979 23.3651 23.3651C23.7979 22.9322 24.0411 22.3451 24.0411 21.733V15.578C24.0411 14.9659 23.7979 14.3788 23.3651 13.946C22.9322 13.5131 22.3451 13.2699 21.733 13.2699H15.578Z" fill="#CDCCCC"/>
</svg>
