<svg width="23" height="24" viewBox="0 0 23 24" fill="none" xmlns="http://www.w3.org/2000/svg">
<path d="M11.2903 0C8.94524 0 6.69621 0.931576 5.038 2.58979C3.37978 4.24801 2.44821 6.49703 2.44821 8.8421V13.2985C2.44839 13.4945 2.40298 13.6878 2.31557 13.8632L0.146732 18.1996C0.0407864 18.4114 -0.00924017 18.6469 0.00140373 18.8835C0.0120476 19.1201 0.0830085 19.3501 0.207547 19.5516C0.332085 19.7531 0.506065 19.9194 0.712964 20.0347C0.919862 20.15 1.15281 20.2106 1.38968 20.2105H21.1909C21.4278 20.2106 21.6608 20.15 21.8677 20.0347C22.0746 19.9194 22.2485 19.7531 22.3731 19.5516C22.4976 19.3501 22.5686 19.1201 22.5792 18.8835C22.5899 18.6469 22.5398 18.4114 22.4339 18.1996L20.2663 13.8632C20.1785 13.6879 20.1326 13.4946 20.1324 13.2985V8.8421C20.1324 6.49703 19.2008 4.24801 17.5426 2.58979C15.8844 0.931576 13.6354 0 11.2903 0ZM11.2903 24C10.5063 24.0004 9.74152 23.7577 9.10128 23.3052C8.46104 22.8527 7.9769 22.2128 7.71557 21.4737H14.865C14.6037 22.2128 14.1196 22.8527 13.4793 23.3052C12.8391 23.7577 12.0743 24.0004 11.2903 24Z" fill="#CDCCCC"/>
</svg>
