<svg width="32" height="36" viewBox="0 0 32 36" fill="none" xmlns="http://www.w3.org/2000/svg">
<path d="M6.14292 9.65316C6.14292 7.09299 7.15995 4.63767 8.97027 2.82735C10.7806 1.01703 13.2359 0 15.7961 0C18.3563 0 20.8116 1.01703 22.6219 2.82735C24.4322 4.63767 25.4492 7.09299 25.4492 9.65316C25.4492 12.2133 24.4322 14.6687 22.6219 16.479C20.8116 18.2893 18.3563 19.3063 15.7961 19.3063C13.2359 19.3063 10.7806 18.2893 8.97027 16.479C7.15995 14.6687 6.14292 12.2133 6.14292 9.65316ZM0 29.837C0 27.5096 0.92457 25.2775 2.57031 23.6318C4.21606 21.986 6.44817 21.0614 8.7756 21.0614H22.8166C25.144 21.0614 27.3761 21.986 29.0219 23.6318C30.6676 25.2775 31.5922 27.5096 31.5922 29.837V35.1024H0V29.837Z" fill="#7F57CA"/>
</svg>
